<svg height="512pt" viewBox="-36 0 512 512.00003" width="512pt" xmlns="http://www.w3.org/2000/svg"><path d="m417.300781 302.160156c1.746094-17.785156 1.429688-29.777344 1.363281-31.667968-.046874-66.160157-23.882812-114.847657-43.878906-144.046876-21.785156-31.808593-43.574218-47.859374-44.488281-48.527343-3.207031-2.335938-7.492187-2.554688-10.921875-.558594s-5.351562 5.832031-4.902344 9.777344c1.304688 11.402343 1.78125 38.425781-5.839844 60.042969-9.257812-26.238282-29.890624-47.121094-46.035156-63.464844-7.46875-7.558594-13.914062-14.085938-17.46875-19.328125-13.621094-20.078125-21.300781-56.078125-21.375-56.4375-.664062-3.183594-2.839844-5.84375-5.828125-7.132813-2.984375-1.289062-6.414062-1.042968-9.1875.660156-1.777343 1.089844-43.574219 27.507813-43.574219 95.523438 0 45.550781-22.433593 85.6875-37.847656 107.882812-10.199218-41.972656-41.964844-74.328124-43.566406-75.9375-2.855469-2.871093-7.160156-3.734374-10.902344-2.1875-3.742187 1.542969-6.1875 5.191407-6.1875 9.242188 0 56.484375-15.59375 81.164062-32.105468 107.292969-16.988282 26.882812-34.554688 54.683593-34.554688 114.707031 0 50.304688 21.230469 91.171875 61.402344 118.175781 34.863281 23.4375 82.558594 35.824219 137.929687 35.824219 22.421875 0 43.292969-2.367188 62.578125-7.050781 13.535156 4.570312 28.027344 7.050781 43.089844 7.050781 74.4375 0 135-60.5625 135-135 0-27.664062-8.367188-53.40625-22.699219-74.839844zm-217.96875 189.839844c-51.382812 0-95.21875-11.210938-126.773437-32.425781-34.875-23.445313-52.558594-57.621094-52.558594-101.574219 0-54.234375 15.28125-78.417969 31.464844-104.023438 14.625-23.140624 29.667968-46.953124 33.976562-91.359374 11.085938 15.789062 24.054688 39.460937 24.945313 64.652343-.109375.394531-4.269531 27.210938-4.269531 27.210938-.839844 5.457031 2.902343 10.5625 8.363281 11.402343.511719.082032 1.027343.121094 1.53125.121094 4.851562 0 9.109375-3.539062 9.871093-8.484375l3.457032-22.46875c9.382812-10.703125 55.824218-67.285156 55.824218-138.050781 0-35.773438 13.195313-57.425781 23.164063-68.675781 3.953125 13.707031 10.71875 33.246093 20.25 47.289062 4.585937 6.761719 11.632813 13.894531 19.789063 22.15625 20.113281 20.359375 45.148437 45.703125 45.148437 77.230469 0 4.050781 2.441406 7.699219 6.183594 9.242188 3.746093 1.546874 8.050781.679687 10.90625-2.1875 19.128906-19.230469 23.789062-50.878907 24.492187-72.832032 6.941406 7.207032 15.328125 16.957032 23.660156 29.214844 26.480469 38.96875 39.90625 83.464844 39.90625 132.246094 0 .132812.003907.273437.007813.40625.007813.175781.109375 3.335937-.035156 8.757812-24.292969-23.421875-57.3125-37.847656-93.636719-37.847656-74.4375 0-135 60.5625-135 135 0 47.308594 24.464844 89.003906 61.402344 113.117188-10.261719 1.242187-20.949219 1.882812-32.070313 1.882812zm105.667969 0c-63.410156 0-115-51.589844-115-115s51.589844-115 115-115 115 51.589844 115 115-51.589844 115-115 115zm0 0"/><path d="m350.003906 361.253906-65.4375-.027344 58.519532-57.066406c3.953124-3.855468 4.03125-10.1875.175781-14.140625s-10.1875-4.035156-14.140625-.179687l-76.101563 74.21875c-2.914062 2.839844-3.816406 7.160156-2.285156 10.925781 1.535156 3.765625 5.195313 6.230469 9.261719 6.234375l67.269531.023438-36.066406 39.324218.589843-2.164062c1.453126-5.328125-1.6875-10.828125-7.015624-12.28125-5.328126-1.453125-10.824219 1.691406-12.277344 7.019531l-11.25 41.226563c-.9375 3.449218.300781 6.894531 2.546875 9.671874 3.207031 3.960938 8.804687 2.851563 9.648437 2.632813l41.976563-11.046875c5.34375-1.40625 8.53125-6.875 7.128906-12.21875-1.40625-5.339844-6.882813-8.527344-12.21875-7.125l-8.441406 2.222656 55.480469-60.492187c2.679687-2.921875 3.378906-7.152344 1.785156-10.78125-1.59375-3.632813-5.183594-5.976563-9.148438-5.976563zm0 0"/><path d="m113.339844 428.429688c-31-3.214844-52.648438-29.863282-52.648438-64.804688 0-38.074219 13.804688-62.339844 13.925782-62.550781 2.804687-4.757813 1.21875-10.886719-3.542969-13.691407-4.757813-2.800781-10.886719-1.214843-13.691407 3.542969-.679687 1.160157-16.691406 28.855469-16.691406 72.699219 0 21.140625 6.664063 41.171875 18.765625 56.410156 12.785157 16.105469 31.191407 26.152344 51.824219 28.289063.351562.035156.695312.054687 1.042969.054687 5.058593 0 9.398437-3.828125 9.933593-8.96875.566407-5.496094-3.421874-10.410156-8.917968-10.980468zm0 0"/><path d="m177.578125 237.75c4.632813 2.90625 10.902344 1.433594 13.792969-3.179688 10.46875-16.75 18.929687-33.179687 25.140625-48.851562 4.957031-12.539062 8.476562-24.570312 10.46875-35.777344 6.078125 6.886719 10.933593 14.355469 16.289062 21.769532 3.292969 4.558593 8.339844 7.050781 13.691407 3.96875 4.789062-2.730469 6.460937-8.851563 3.71875-13.648438-.019532-.03125-.058594-.089844-.109376-.179688-3.1875-5.402343-15.148437-24.332031-35.058593-41.441406-2.933594-2.511718-7.191407-3.109375-10.691407-1.5-3.53125 1.628906-5.820312 5.199219-5.820312 9.089844.019531 14.859375-3.710938 31.800781-11.078125 50.339844-5.773437 14.570312-13.683594 29.910156-23.511719 45.621094-2.929687 4.679687-1.5 10.859374 3.167969 13.789062zm0 0"/><path d="m166.078125 254.238281c-1.769531-1.429687-4-2.21875-6.277344-2.21875-3.039062 0-5.871093 1.359375-7.78125 3.71875-1.679687 2.082031-2.449219 4.683594-2.167969 7.339844.289063 2.660156 1.589844 5.042969 3.667969 6.722656 1.769531 1.429688 4 2.21875 6.269531 2.21875 3.039063 0 5.882813-1.347656 7.789063-3.710937 1.683594-2.078125 2.441406-4.6875 2.160156-7.347656-.277343-2.652344-1.578125-5.039063-3.660156-6.722657zm0 0"/><path d="m341.980469 188.308594s.019531.042968.089843.191406c.5 1.070312 3.109376 6.738281 5.667969 13.96875 3.023438 8.410156 4.992188 16.679688 5.28125 22.121094.308594 5.28125 4.691407 9.410156 9.96875 9.410156.199219 0 .402344 0 .601563-.019531 5.5-.320313 9.71875-5.058594 9.390625-10.570313-.679688-10.78125-4.300781-21.839844-6.960938-29.210937-2.6875-7.378907-5.25-12.929688-5.96875-14.449219l-.03125-.058594c-1.648437-3.460937-5.199219-5.691406-9.027343-5.691406-1.5 0-2.941407.328125-4.3125.980469-4.96875 2.378906-7.078126 8.347656-4.710938 13.328125zm0 0"/></svg>