<?xml version="1.0" encoding="iso-8859-1"?>
<!-- Generator: Adobe Illustrator 19.0.0, SVG Export Plug-In . SVG Version: 6.00 Build 0)  -->
<svg version="1.1" id="Capa_1" xmlns="http://www.w3.org/2000/svg" xmlns:xlink="http://www.w3.org/1999/xlink" x="0px" y="0px"
	 viewBox="0 0 512 512" style="enable-background:new 0 0 512 512;" xml:space="preserve">
<g>
	<g>
		<path d="M471.025,227.456c5.028-13.736,7.665-28.362,7.665-43.276c0-69.386-56.45-125.836-125.837-125.836
			c-37.778,0-73.179,16.999-96.853,45.505c-23.674-28.506-59.076-45.505-96.854-45.505c-69.387,0-125.837,56.45-125.837,125.836
			c0,28.204,9.406,55.384,26.647,77.443H0v30h88.426c48.753,48.374,151.889,147.035,157.206,152.12L256,453.656l10.368-9.915
			c6.509-6.226,159.664-152.735,180.098-175.468c3.11-3.46,6.007-7.074,8.691-10.818H512v-30H471.025z M256,412.133
			c-23.686-22.698-82.911-79.539-124.812-120.511h58.397l27.52-43.613l51.885,72.639l50.553-63.192h95.771
			C382.996,290.278,287.688,381.766,256,412.133z M438.358,227.456H305.124l-34.78,43.475l-54.782-76.695l-42.52,67.387h-72.229
			c-6.036-6.064-10.547-10.71-12.967-13.403c-15.823-17.603-24.537-40.347-24.537-64.04c0-52.845,42.992-95.836,95.837-95.836
			c34.722,0,66.814,18.864,83.754,49.23l13.1,23.482l13.1-23.482c16.94-30.366,49.032-49.23,83.754-49.23
			c52.845,0,95.837,42.992,95.837,95.836C448.691,199.365,445.094,214.154,438.358,227.456z"/>
	</g>
</g>
<g>
</g>
<g>
</g>
<g>
</g>
<g>
</g>
<g>
</g>
<g>
</g>
<g>
</g>
<g>
</g>
<g>
</g>
<g>
</g>
<g>
</g>
<g>
</g>
<g>
</g>
<g>
</g>
<g>
</g>
</svg>
