<?xml version="1.0" encoding="iso-8859-1"?>
<!-- Generator: Adobe Illustrator 19.0.0, SVG Export Plug-In . SVG Version: 6.00 Build 0)  -->
<svg version="1.1" id="Layer_1" xmlns="http://www.w3.org/2000/svg" xmlns:xlink="http://www.w3.org/1999/xlink" x="0px" y="0px"
	 viewBox="0 0 512 512" style="enable-background:new 0 0 512 512;" xml:space="preserve">
<g>
	<g>
		<path d="M387.62,432.039h-17.546c-4.544,0-8.226,3.682-8.226,8.226s3.682,8.226,8.226,8.226h17.546
			c4.544,0,8.226-3.682,8.226-8.226S392.164,432.039,387.62,432.039z"/>
	</g>
</g>
<g>
	<g>
		<path d="M511.927,393.081c0-2.903-0.088-5.853-0.461-8.707L470.955,73.771c-3.374-25.86-25.583-45.36-51.662-45.36H92.707
			c-26.078,0-48.287,19.5-51.662,45.36L0.533,384.373c-0.373,2.855-0.461,4.706-0.461,8.707L0,422.707
			c-0.026,16.215,6.3,31.5,17.818,43.036c11.49,11.509,26.783,17.846,43.063,17.846h390.238c16.28,0,31.573-6.337,43.063-17.846
			c11.518-11.537,17.845-26.82,17.818-43.041L511.927,393.081z M422.716,448.491h32.453c14.69,0,28.732-5.709,39.253-15.782
			c-1.837,8.022-5.893,15.408-11.884,21.41c-8.381,8.395-19.539,13.018-31.419,13.018H60.881c-11.88,0-23.039-4.623-31.419-13.018
			c-5.992-6.002-10.048-13.389-11.884-21.41c10.521,10.073,24.563,15.782,39.253,15.782h278.141c4.544,0,8.226-3.682,8.226-8.226
			s-3.682-8.226-8.226-8.226H56.832c-11.602,0-22.646-5-30.301-13.718c-7.655-8.717-11.183-20.315-9.683-31.821L57.359,75.898
			c2.308-17.693,17.504-31.036,35.348-31.036h326.586c17.844,0,33.039,13.343,35.348,31.036l40.512,310.603
			c1.5,11.505-2.029,23.102-9.683,31.821s-18.699,13.718-30.301,13.718h-32.453c-4.544,0-8.226,3.682-8.226,8.226
			S418.173,448.491,422.716,448.491z"/>
	</g>
</g>
<g>
	<g>
		<path d="M168.254,63.508H98.058c-4.544,0-8.226,3.682-8.226,8.226s3.682,8.226,8.226,8.226h70.196
			c4.544,0,8.226-3.682,8.226-8.226S172.798,63.508,168.254,63.508z"/>
	</g>
</g>
<g>
	<g>
		<path d="M256,63.508c-57.757,0-104.746,46.989-104.746,104.746c0,4.544,3.682,8.226,8.226,8.226h72.086
			c1.25,3.725,3.347,7.139,6.207,9.999c-0.001,0,0.001,0.001,0.001,0.001c4.868,4.868,11.34,7.549,18.225,7.549
			c6.885,0,13.358-2.681,18.225-7.549c1.745-1.745,4.226-5.362,7.065-10h71.231c4.544,0,8.226-3.682,8.226-8.226
			C360.746,110.497,313.758,63.508,256,63.508z M262.591,174.847c-1.76,1.762-4.101,2.73-6.592,2.73c-2.491,0-4.83-0.97-6.592-2.73
			l-0.001-0.001c-1.76-1.76-2.73-4.101-2.73-6.592s0.97-4.83,2.731-6.593c2.507-2.491,15.902-10.083,31.494-18.309
			C272.676,158.944,265.083,172.34,262.591,174.847z M290.672,160.029v-0.001c6.801-12.522,13.525-25.875,16.565-31.98
			c1.576-3.165,0.953-6.982-1.547-9.483c-2.502-2.5-6.321-3.124-9.483-1.547c-11.877,5.914-51.193,25.771-58.431,33.011
			c-2.86,2.859-4.959,6.275-6.208,10h-63.481c0.939-10.123,3.609-19.747,7.685-28.595l7.725,4.46
			c1.296,0.748,2.71,1.103,4.105,1.103c2.843,0,5.608-1.475,7.131-4.114c2.272-3.934,0.924-8.965-3.011-11.237l-7.7-4.445
			c5.755-8.089,12.832-15.17,20.921-20.924l4.447,7.701c1.523,2.639,4.289,4.114,7.132,4.114c1.395,0,2.811-0.355,4.105-1.103
			c3.934-2.271,5.282-7.303,3.011-11.237l-4.462-7.728c8.847-4.077,18.475-6.737,28.597-7.677v8.937
			c0,4.544,3.682,8.226,8.226,8.226c4.544,0,8.226-3.682,8.226-8.226v-8.937c10.123,0.94,19.749,3.6,28.597,7.677l-4.462,7.728
			c-2.272,3.934-0.924,8.965,3.011,11.237c1.296,0.748,2.71,1.103,4.105,1.103c2.843,0,5.608-1.475,7.132-4.114l4.446-7.701
			c8.089,5.754,15.167,12.835,20.921,20.924l-7.7,4.445c-3.934,2.271-5.282,7.303-3.011,11.237c1.523,2.639,4.289,4.114,7.132,4.114
			c1.395,0,2.811-0.355,4.105-1.103l7.725-4.46c4.077,8.848,6.747,18.473,7.685,28.595H290.672z"/>
	</g>
</g>
<g>
	<g>
		<path d="M413.941,63.508h-70.196c-4.544,0-8.226,3.682-8.226,8.226s3.682,8.226,8.226,8.226h70.196
			c4.544,0,8.226-3.682,8.226-8.226S418.485,63.508,413.941,63.508z"/>
	</g>
</g>
<g>
</g>
<g>
</g>
<g>
</g>
<g>
</g>
<g>
</g>
<g>
</g>
<g>
</g>
<g>
</g>
<g>
</g>
<g>
</g>
<g>
</g>
<g>
</g>
<g>
</g>
<g>
</g>
<g>
</g>
</svg>
