<?xml version="1.0" encoding="iso-8859-1"?>
<!-- Generator: Adobe Illustrator 19.0.0, SVG Export Plug-In . SVG Version: 6.00 Build 0)  -->
<svg version="1.1" id="Capa_1" xmlns="http://www.w3.org/2000/svg" xmlns:xlink="http://www.w3.org/1999/xlink" x="0px" y="0px"
	 viewBox="0 0 512 512" style="enable-background:new 0 0 512 512;" xml:space="preserve">
<g>
	<g>
		<path d="M402.571,103.617l-12.604-10.083V0H122.033v93.534l-12.604,10.083c-22.761,18.209-35.814,45.369-35.814,74.517V512
			h364.771V178.134C438.385,148.986,425.332,121.826,402.571,103.617z M152.033,30h207.934v49.213H152.033V30z M408.385,482H103.614
			V379.94h24.385v-30h-24.386v-39.333h24.386v-30h-24.386v-39.333h24.386v-30h-24.386v-33.139c0-19.984,8.95-38.607,24.556-51.091
			l22.287-17.83h211.086l22.287,17.83c9.52,7.616,16.546,17.523,20.591,28.624H173.718v279.88h234.667V482z M408.385,185.667v219.88
			H203.718v-219.88H408.385z"/>
	</g>
</g>
<g>
	<g>
		<polygon points="305.361,280.606 332.481,239.927 307.519,223.286 249.304,310.606 313.305,310.606 286.186,351.286 
			311.148,367.927 369.361,280.606 		"/>
	</g>
</g>
<g>
</g>
<g>
</g>
<g>
</g>
<g>
</g>
<g>
</g>
<g>
</g>
<g>
</g>
<g>
</g>
<g>
</g>
<g>
</g>
<g>
</g>
<g>
</g>
<g>
</g>
<g>
</g>
<g>
</g>
</svg>
