<svg height="479pt" viewBox="-16 0 479 479.83367" width="479pt" xmlns="http://www.w3.org/2000/svg"><path d="m443.820312 80.839844-29.601562-14.800782-14.800781-29.597656c-1.148438-2.296875-3.332031-3.902344-5.867188-4.3125-2.535156-.410156-5.113281.417969-6.933593 2.230469l-56 56c-1.507813 1.492187-2.359376 3.519531-2.375 5.640625v44.6875l-125.65625 125.65625 11.3125 11.3125 125.65625-125.65625h44.6875c2.121093 0 4.15625-.84375 5.65625-2.34375l56-56c1.8125-1.820312 2.644531-4.398438 2.230468-6.933594-.410156-2.53125-2.015625-4.714844-4.308594-5.867187zm-62.890624 55.160156h-36.6875v-36.6875l45.808593-45.808594 8.457031 16.894532-35.921874 35.921874 11.3125 11.3125 35.921874-35.921874 16.917969 8.457031zm0 0"/><path d="m208.242188 248v-16c-12.523438.035156-24.300782 5.964844-31.792969 16h-40.207031c-13.226563.066406-23.933594 10.773438-24 24 0 13.253906 10.746093 24 24 24h40.207031c8.378906 11.945312 22.910156 17.96875 37.28125 15.449219l44.855469 44.855469c4.480468 4.511718 10.578124 7.050781 16.9375 7.054687 9.734374.039063 18.527343-5.808594 22.257812-14.800781 3.730469-8.992188 1.660156-19.347656-5.242188-26.214844l-44.847656-44.847656c.308594-1.816406.492188-3.652344.550782-5.496094h-16c0 13.253906-10.746094 24-24 24-13.253907 0-24-10.746094-24-24s10.746093-24 24-24zm33.335937 46.015625 39.648437 39.640625c1.503907 1.5 2.347657 3.535156 2.347657 5.660156 0 2.121094-.84375 4.160156-2.347657 5.660156-3.160156 3.050782-8.175781 3.050782-11.335937 0l-39.648437-39.640624c4.5-2.976563 8.351562-6.824219 11.335937-11.320313zm-105.335937-14.015625c-4.417969 0-8-3.582031-8-8-.003907-2.15625.882812-4.222656 2.449218-5.703125 1.464844-1.484375 3.464844-2.3125 5.550782-2.296875h32.800781c-1.078125 5.277344-1.078125 10.722656 0 16zm0 0"/><path d="m311.59375 129.527344c-74.324219-53.914063-177.609375-41.632813-237.21875 28.210937-59.605469 69.84375-55.503906 173.777344 9.425781 238.703125 64.925781 64.929688 168.859375 69.03125 238.703125 9.425782 69.84375-59.609376 82.125-162.894532 28.210938-237.21875l-12.945313 9.40625c49.007813 67.570312 37.835938 161.464843-25.660156 215.648437-63.492187 54.183594-157.972656 50.449219-216.996094-8.574219-59.023437-59.023437-62.757812-153.5-8.574219-216.996094 54.1875-63.496093 148.078126-74.667968 215.648438-25.660156zm0 0"/><path d="m372.28125 172.167969c50.53125 82.980469 31.078125 190.632812-45.292969 250.683593-76.371093 60.050782-185.574219 53.558594-254.292969-15.117187s-75.277343-177.875-15.273437-254.285156c60.003906-76.410157 167.640625-95.925781 250.652344-45.449219l8.335937-13.65625c-25.632812-15.605469-54.351562-25.453125-84.167968-28.855469v-17.488281c13.253906 0 24-10.746094 24-24s-10.746094-24-24-24h-48c-13.253907 0-24 10.746094-24 24s10.746093 24 24 24v17.425781c-20.171876 2.316407-39.890626 7.605469-58.519532 15.6875l-8.679687-15.082031c11.488281-6.625 15.425781-21.3125 8.800781-32.800781-6.628906-11.484375-21.3125-15.425781-32.800781-8.796875l-41.601563 24c-11.484375 6.625-15.425781 21.3125-8.796875 32.796875 6.625 11.488281 21.3125 15.429687 32.796875 8.800781l8.746094 15.121094c-90.09375 67.054687-110.644531 193.542968-46.417969 285.671875 64.226563 92.132812 190.015625 116.601562 284.09375 55.265625 94.082031-61.335938 122.445313-186.300782 64.058594-282.242188zm-196.039062-148.167969c0-4.417969 3.582031-8 8-8h48c4.417968 0 8 3.582031 8 8s-3.582032 8-8 8h-48c-4.417969 0-8-3.582031-8-8zm24 24h16v16.273438c-2.664063-.105469-5.328126-.273438-8-.273438-2.671876 0-5.34375.105469-8 .199219zm-143.710938 25.222656c-2.210938-3.820312-.910156-8.710937 2.910156-10.925781l41.601563-24c1.214843-.707031 2.59375-1.078125 4-1.074219 3.625-.003906 6.804687 2.429688 7.742187 5.933594.9375 3.5-.597656 7.195312-3.742187 9.003906l-41.601563 24c-3.824218 2.195313-8.703125.882813-10.910156-2.9375zm32.800781 8.800782 13.832031-8 8.117188 14.046874c-4.71875 2.496094-9.324219 5.164063-13.816406 8zm0 0"/><path d="m200.242188 128h16v16h-16zm0 0"/><path d="m129.3125 151.289062 13.855469-8 8 13.855469-13.859375 8zm0 0"/><path d="m79.53125 206.9375 8-13.859375 13.855469 8-8 13.855469zm0 0"/><path d="m64.242188 264h16v16h-16zm0 0"/><path d="m79.527344 337.070312 13.859375-8 7.996093 13.859376-13.855468 7.996093zm0 0"/><path d="m129.304688 392.710938 8-13.859376 13.859374 8-8 13.855469zm0 0"/><path d="m200.242188 400h16v16h-16zm0 0"/><path d="m265.316406 386.84375 13.855469-7.996094 8 13.855469-13.859375 8zm0 0"/><path d="m315.09375 342.9375 8-13.855469 13.855469 8-7.996094 13.855469zm0 0"/><path d="m336.242188 264h16v16h-16zm0 0"/><path d="m315.09375 201.074219 13.855469-8 8 13.859375-13.855469 7.996094zm0 0"/><path d="m265.316406 157.144531 8-13.855469 13.855469 8-7.996094 13.855469zm0 0"/></svg>