<svg id="water-bottle" enable-background="new 0 0 300 300" viewBox="0 0 300 300" xmlns="http://www.w3.org/2000/svg"><g><path d="m238 84c2.211 0 4-1.791 4-4v-8c0-2.209-1.789-4-4-4s-4 1.791-4 4v8c0 2.209 1.789 4 4 4z"/><path d="m238 92c-2.211 0-4 1.791-4 4v8c0 2.209 1.789 4 4 4s4-1.791 4-4v-8c0-2.209-1.789-4-4-4z"/><path d="m222 92h8c2.211 0 4-1.791 4-4s-1.789-4-4-4h-8c-2.211 0-4 1.791-4 4s1.789 4 4 4z"/><path d="m254 84h-8c-2.211 0-4 1.791-4 4s1.789 4 4 4h8c2.211 0 4-1.791 4-4s-1.789-4-4-4z"/><path d="m57.995 140c-2.209.002-3.998 1.795-3.995 4.005.002 2.209 1.795 3.998 4.005 3.995 2.209-.003 3.998-1.796 3.995-4.005-.002-2.209-1.795-3.998-4.005-3.995z"/><path d="m45.995 180c-2.209.002-3.998 1.795-3.995 4.005.002 2.209 1.795 3.998 4.005 3.995 2.209-.003 3.998-1.796 3.995-4.005-.002-2.209-1.795-3.998-4.005-3.995z"/><path d="m224 132c-7.719 0-14 6.281-14 14s6.281 14 14 14 14-6.281 14-14-6.281-14-14-14zm0 20c-3.309 0-6-2.691-6-6s2.691-6 6-6 6 2.691 6 6-2.691 6-6 6z"/><path d="m177.91 69.537c-.012-.02-.023-.037-.039-.057-2.255-3.277-4.811-6.856-7.522-10.454 4.49-1.89 7.651-6.332 7.651-11.501v-7.051c0-6.878-5.598-12.474-12.477-12.474h-55.047c-6.878 0-12.476 5.596-12.476 12.475v7.051c0 4.734 2.682 8.811 6.578 10.924-4.508 6.198-8.824 13.489-12.383 21.113-4.054 8.679-6.195 18.513-6.195 28.437v9.854c0 4.39 1.842 8.271 4.667 10.867-2.881 2.895-4.667 6.881-4.667 11.279 0 4.801 2.169 9.065 5.529 12-3.36 2.935-5.529 7.199-5.529 12 0 4.521 1.902 8.591 4.928 11.504-2.993 2.595-4.928 6.379-4.928 10.642v56.203c0 16.35 13.301 29.65 29.652 29.65h44.695c16.352.001 29.653-13.3 29.653-29.649v-56.203c0-4.264-1.935-8.047-4.928-10.643 3.026-2.913 4.928-6.983 4.928-11.504 0-4.801-2.169-9.065-5.529-12 3.36-2.935 5.529-7.199 5.529-12 0-4.398-1.786-8.384-4.667-11.279 2.825-2.597 4.667-6.477 4.667-10.867v-9.854c0-13.691-3.91-26.598-11.301-37.32zm-16.877-9.537c2.538 3.125 4.892 6.349 7.082 9.464-6.062 1.015-11.331 3.535-15.701 7.612-12.923 12.062-36.748 11.273-51.41 2.762 3.684-7.365 7.99-14.289 12.416-19.839h47.613zm-55.033-19.525c0-2.467 2.008-4.475 4.477-4.475h55.047c2.469 0 4.477 2.008 4.477 4.475v7.051c0 2.467-2.008 4.475-4.477 4.475h-55.047c-2.469 0-4.477-2.008-4.477-4.475zm69.855 139.525c3.387 0 6.145 2.758 6.145 6.146v56.203c0 11.938-9.715 21.65-21.652 21.65h-44.695c-11.938.001-21.653-9.712-21.653-21.649v-56.203c0-3.389 2.758-6.146 6.145-6.146h75.71zm6.145-16c0 4.412-3.59 8-8 8h-72c-4.41 0-8-3.588-8-8s3.59-8 8-8h72c4.41 0 8 3.588 8 8zm-80-16c-4.41 0-8-3.588-8-8s3.59-8 8-8h72c4.41 0 8 3.588 8 8s-3.59 8-8 8zm80-30.146c0 3.332-2.148 6.146-4.695 6.146h-78.61c-2.547 0-4.695-2.814-4.695-6.146v-9.854c0-7.198 1.336-14.296 3.766-20.843 8.027 4.448 18.147 7.026 28.281 7.025 11.719 0 23.422-3.412 31.828-11.258 4.024-3.759 9.233-5.674 15.391-5.877 5.698 9.016 8.734 19.656 8.734 30.953z"/><path d="m158 244.005c.002 2.209 1.795 3.998 4.005 3.995 2.209-.003 3.998-1.796 3.995-4.005-.002-2.209-1.795-3.998-4.005-3.995-2.209.002-3.997 1.795-3.995 4.005z"/><path d="m126.005 232c2.209-.003 3.998-1.796 3.995-4.005-.002-2.209-1.795-3.998-4.005-3.995-2.209.002-3.998 1.795-3.995 4.005.002 2.209 1.795 3.997 4.005 3.995z"/><path d="m158.005 208c2.209-.003 3.998-1.796 3.995-4.005-.002-2.209-1.795-3.998-4.005-3.995-2.209.002-3.998 1.795-3.995 4.005.002 2.209 1.795 3.997 4.005 3.995z"/><path d="m117.995 104c-2.209.002-3.998 1.795-3.995 4.005.002 2.209 1.795 3.998 4.005 3.995 2.209-.003 3.998-1.796 3.995-4.005-.002-2.209-1.795-3.998-4.005-3.995z"/></g></svg>
