<?xml version="1.0" encoding="UTF-8"?><svg xmlns="http://www.w3.org/2000/svg" viewBox="0 0 50 50"><path style="line-height:normal;text-indent:0;text-align:start;text-decoration-line:none;text-decoration-style:solid;text-decoration-color:#000;text-transform:none;block-progression:tb;isolation:auto;mix-blend-mode:normal" d="M22 .982c-2.197 0-4 1.803-4 4 0 2.198 1.803 4 4 4s4-1.802 4-4c0-2.197-1.803-4-4-4zM32.494 10C30.023 10 28 12.027 28 14.5s2.023 4.5 4.494 4.5c2.472 0 4.496-2.027 4.496-4.5S34.966 10 32.494 10zm-10.49.5c-2.196 0-3.996 1.803-3.996 4s1.8 4 3.996 4c2.196 0 3.996-1.803 3.996-4s-1.8-4-3.996-4zM13 12c-1.645 0-3 1.355-3 3s1.355 3 3 3 3-1.355 3-3-1.355-3-3-3zm30.992 8.002C41.246 20.002 39 22.252 39 25s2.246 4.998 4.992 4.998c2.747 0 4.994-2.25 4.994-4.998s-2.247-4.998-4.994-4.998zm-11.498.498C30.023 20.5 28 22.527 28 25s2.023 4.5 4.494 4.5c2.472 0 4.496-2.027 4.496-4.5s-2.024-4.5-4.496-4.5zm-10.488.5c-2.196 0-3.996 1.803-3.996 4s1.8 4 3.996 4c2.196 0 3.996-1.803 3.996-4s-1.8-4-3.996-4zM5 22c-1.645 0-3 1.355-3 3s1.355 3 3 3 3-1.355 3-3-1.355-3-3-3zm8 0c-1.645 0-3 1.355-3 3s1.355 3 3 3 3-1.355 3-3-1.355-3-3-3zm19.494 9C30.023 31 28 33.027 28 35.5s2.023 4.5 4.494 4.5c2.472 0 4.496-2.027 4.496-4.5S34.966 31 32.494 31zm-10.49.5c-2.196 0-3.996 1.803-3.996 4s1.8 4 3.996 4c2.196 0 3.996-1.803 3.996-4s-1.8-4-3.996-4zm-9 .5a3.015 3.015 0 0 0-2.998 3c0 1.644 1.354 3 2.998 3A3.013 3.013 0 0 0 16 35c0-1.644-1.352-3-2.996-3zm9 9C19.802 41 18 42.813 18 45.018c0 2.204 1.802 4.017 4.004 4.017 2.202 0 4.002-1.813 4.002-4.017 0-2.205-1.8-4.018-4.002-4.018z"/><metadata><rdf:RDF xmlns:rdf="http://www.w3.org/1999/02/22-rdf-syntax-ns#" xmlns:rdfs="http://www.w3.org/2000/01/rdf-schema#" xmlns:dc="http://purl.org/dc/elements/1.1/"><rdf:Description about="https://iconscout.com/legal#licenses" dc:title="fitbit,filled" dc:description="fitbit,filled" dc:publisher="Iconscout" dc:date="2017-12-09" dc:format="image/svg+xml" dc:language="en"><dc:creator><rdf:Bag><rdf:li>Icons8</rdf:li></rdf:Bag></dc:creator></rdf:Description></rdf:RDF></metadata></svg>